# xmcd
# Track frame offsets:
# 150
# 24701
# 38528
# 50294
# 69025
# 81630
# 96107
# 107061
# 121061
# 132676
# 143314
# 158680
# 172139
# 186219
# 199904
# 214365
# 226547
# 239759
#
# Disc length: 3383 seconds
# Revision: 0
# Processed by: cddbd v1.5.1PL0 Copyright (c) Steve Scherf et al.
# Submitted via: VisiTrax 2.9.5.181 - For more info visit www.synapsa.com
#
DISCID=f70d3512
DTITLE=Various Artist - Midnight Blues
DYEAR=2004
DGENRE=
TTITLE0=BB King - The Thrill Is Gone
TTITLE1=Ray Charles - A Fool For Your
TTITLE2=Etta James - I'd Rather Go Blind
TTITLE3=Bobby Bland - Stormy Monday Blues
TTITLE4=Aretha Franklin - Today I Sing The Blues
TTITLE5=Lowell Fulson - Reconsider Baby
TTITLE6=Jimmy Witherspoon - Trouble In Mind
TTITLE7=Chuck Berry - Wee Wee Hours
TTITLE8=Lim Harpo - Rainin' In My Heart
TTITLE9=Barbara Lynn - You"ll Lose A Good Thing
TTITLE10=Big Joe Turner - Chains Of Love
TTITLE11=Johnny Ace with the Beale Streeters - The Clock
TTITLE12=Charles Brown - Black Night
TTITLE13=BB King - Three O'Clock Blues
TTITLE14=Ivory Joe Hunter - I Almost Lost My Mind
TTITLE15=Eddie Boyd - Five Long Years
TTITLE16=Percy Mayfield - Please Send Me Someone To Love
TTITLE17=Toussaint McCall - Nothing Takes The Place Of You
EXTD=
EXTT0=
EXTT1=
EXTT2=
EXTT3=
EXTT4=
EXTT5=
EXTT6=
EXTT7=
EXTT8=
EXTT9=
EXTT10=
EXTT11=
EXTT12=
EXTT13=
EXTT14=
EXTT15=
EXTT16=
EXTT17=
PLAYORDER=
